<svg xmlns="http://www.w3.org/2000/svg" viewBox="0 0 200 100"><title>image</title><rect width="200" height="100" fill="#f4f4f4"/><path d="M107.9,38.8H92.1a3.4,3.4,0,0,0-3.4,3.4V57.9a3.4,3.4,0,0,0,3.4,3.4h15.7a3.4,3.4,0,0,0,3.4-3.4V42.1A3.4,3.4,0,0,0,107.9,38.8ZM109,57.9a1.1,1.1,0,0,1-1.1,1.1h-13l9.6-9.6,4.5,4.5Zm0-7.2L105.3,47a1.1,1.1,0,0,0-1.6,0L91.8,58.9a1.1,1.1,0,0,1-.7-1V42.1A1.1,1.1,0,0,1,92.1,41h15.7a1.1,1.1,0,0,1,1.1,1.1Z" fill="#919191"/><path d="M96.1,43.3a2.8,2.8,0,1,0,2.8,2.8A2.8,2.8,0,0,0,96.1,43.3Zm0,3.4a.6.6,0,1,1,.6-.6A.6.6,0,0,1,96.1,46.6Z" fill="#919191"/></svg>
